<?xml version="1.0" encoding="UTF-8"?>
<svg version="1.1" viewBox="0 0 2025 2048" width="183" height="185" xmlns="http://www.w3.org/2000/svg">
<path transform="translate(395,55)" d="m0 0h1211l41 1 26 2 27 4 25 6 30 10 25 11 23 12 19 12 17 12 16 13 20 18 9 9 7 8 8 9 13 17 10 14 15 25 10 19 12 29 9 28 6 28 3 19 2 21 1 20 1 414v204l-1 608-1 34-2 32-4 26-7 29-10 30-9 20-8 16-8 15-10 16-12 17-10 13-12 14-22 22-11 9-15 12-15 10-19 12-27 14-24 10-27 9-30 7-26 4-24 2-19 1-34 1h-1185l-37-1-37-3-24-4-24-6-15-5-10-6-8-14v-7l5-9 9-9 4-5 5-4 6-7 8-7 22-22 7-8 7-7 16-14h2l2-4 9-8 7-8 53-53 14-11 10-7 10-8 6-6h2v-2l8-7 27-27 8-7 70-70 8-7 54-54 8-7 15-15 2-4h-624l-1-1-1-10-1-946v-104l1-81 2-40 3-26 5-25 6-23 10-27 12-27 11-20 12-19 7-10 12-16 8-10 15-15 2-3h2v-2l8-7 7-7 14-11 12-9 21-14 24-14 23-11 24-9 29-8 24-5 25-3zm1040 398-5 2-5 6-2 1h-19l-16 3-8 7-11 2h-9l-13 8-9 3-8 5-13 12-35 35-4 5-5 5-3 12-10 11-3 5-5 5-1 2-3 20-3 5-3 3-2 6-2 25-3 10-5 5-1 3-1 11v13l2 11 6 7 1 5 1 20 2 11 6 7 4 18 1 7 9 11 8 10 5 12 9 11 27 27 8 7 16 8 8 6 9 8 4 4 9 2 7-1 11 4 5 6 5 1 8 1 4-1h10l11 3 3 3 2 4 15 1h11l12-1 5-4 3-4 13-1 22-2 6-4 3-4 22-2 7-4 4-5 10-7 6-4 9-4 11-9 12-11 13-13 14-15 10-14 8-16 3-7 4-18 7-14 1-17 1-23 3-6 6-7v-9l-4-7-4-5-2-9v-16l-2-20-3-6-3-4-3-12-2-11-8-16-5-9-9-11-8-8-7-8-25-25-8-7-10-8-5-3-9-3-10-6-15-4h-7l-11-7-9-3-8 1-9-2h-8l-3-1v-2l-10-5-9-1-3 1-3-1z" fill="#1B1B1B"/>
<path transform="translate(1636,788)" d="m0 0 2 3-1 4-4 3-3-1z" fill="#FEFEFE"/>
</svg>
