<?xml version="1.0" encoding="UTF-8"?>
<svg version="1.1" viewBox="0 0 2048 595" width="660" height="192" xmlns="http://www.w3.org/2000/svg">
<path transform="translate(160,93)" d="m0 0h276l13 2 16 7 14 10 9 10 8 13 5 15 1 5 1 17v246l-1 21-4 15-8 16-11 13-13 9-13 6-12 3-11 1h-264l-13-1-10-3-3-2 1-4 28-28h2l1-3 8-7 38-38 7-6-132-1v-250l3-15 8-17 9-11 7-7 14-9 14-5zm228 84-5 2-9 2-12 7-7 7-7 14-3 12v5l1 1 2 10 7 14 7 7 11 6 3 2 12 2 5 1 6-2 8-2 13-7 8-9 6-12 2-11 1-5-2-5-2-9-7-13-7-7-14-7-11-2-1-1z" fill="#181818"/>
<path transform="translate(652,187)" d="m0 0h43l8 13 15 26 10 17 17 29 15 26 15 25v-90l1-46h41l1 1v201l-1 1h-42l-17-29-15-26-11-19-14-24-15-26-8-13h-1v137h-42z" fill="#191919"/>
<path transform="translate(911,237)" d="m0 0h10l16 2 15 5 11 7 10 9 7 10 5 11 4 14 2 16v15l-3 18-4 12-8 14-10 11-13 8-13 5-9 2-11 1h-9l-15-2-15-5-12-7-12-12-8-14-5-15-2-10v-30l4-17 5-12 7-11 11-11 14-8 12-4zm-1 32-9 3-10 9-6 10-4 16v21l4 15 6 10 7 7 8 4 4 1h13l9-4 8-6 7-11 4-14 1-15-2-16-5-13-7-9-9-6-6-2z" fill="#191919"/>
<path transform="translate(1153,237)" d="m0 0h9l15 2 12 4 12 7 11 10 9 14 5 14 3 17 1 21-1 1h-101l3 19 5 10 7 6 7 3 5 1h10l10-3 8-6 6-9h39l-3 9-7 12-8 9-11 8-10 5-13 4-16 2-16-1-12-3-14-7-12-11-9-14-6-18-2-13v-23l3-18 6-16 7-11 9-10 14-9 16-5zm0 30-9 3-8 7-5 11-2 8v5h60l-3-14-5-10-8-7-10-3z" fill="#191919"/>
<path transform="translate(1306,237)" d="m0 0 21 1 16 4 13 7 9 8 6 10 4 11 1 10h-38l-4-11-6-5-10-3h-16l-10 4-4 6v6l5 5 21 7 35 10 12 5 6 4 7 7 4 8 2 9v11l-3 12-5 10-10 11-10 6-16 5-19 2-22-1-15-3-13-5-10-7-7-8-4-8-4-16v-2l34-1 5 1 4 10 5 4 8 3 5 1h18l13-4 5-5 1-6-2-5-4-3-27-9-32-10-16-8-6-7-4-9-1-5v-14l3-12 6-10 9-9 10-6 12-4z" fill="#191919"/>
<path transform="translate(1019,202)" d="m0 0h38l1 1v40h21l1 1v24l-1 1h-20v90l3 6 3 1h14l1 6v21l-9 3-19 1-12-2-10-5-6-7-4-8-1-4-1-102h-18l-1-2v-15l1-9 18-1z" fill="#1A1A1A"/>
</svg>
